<?xml version="1.0" encoding="utf-8"?>
<!-- Generator: Adobe Illustrator 25.0.0, SVG Export Plug-In . SVG Version: 6.00 Build 0)  -->
<svg version="1.1" id="Capa_1" xmlns="http://www.w3.org/2000/svg" xmlns:xlink="http://www.w3.org/1999/xlink" x="0px" y="0px"
	 viewBox="0 0 203 52.9" style="enable-background:new 0 0 203 52.9;" xml:space="preserve">
<style type="text/css">
	.st0{fill:#FFFFFF;}
	.st1{fill:#808080;}
	.st2{fill:#E71B19;}
	.st3{fill:#730E0D;}
</style>
<g>
	<path class="st0" d="M147.4,6c1.1-2.2,3.6-3.7,6-3.1c0.8,0.5,1.6,0.9,2.1,1.8c0.7,1.2,0.6,2.7,0.3,4c-0.9,3.3-1.8,6.6-2.7,9.8
		l0,0.1c-2.8-0.7-5.6-1.3-8.4-1.9c0.6-2.6,1.1-5.2,1.9-7.8C146.9,7.9,146.9,6.9,147.4,6z"/>
	<path class="st0" d="M131.8,30.5c0.4-1.1,1.5-1.8,2.6-2c0.6-0.1,1.3-0.1,1.7,0.5c0.4,0.6,0,1.3,0.1,1.9c0.3,3.4,0.8,6.7,1.5,10
		c0.3,1.2,0.6,2.4,1.2,3.5c0.2,0.4,0.7,0.7,1,0.3c0.8-1.2,0.9-2.6,1.2-4c0.6-3.4,0.7-6.8,0.6-10.2c0-0.7,0.6-1.5,1.4-1.3
		c0.8,0.1,1.3,0.7,1.8,1.2c0.5,4,0.7,8.2-0.6,12.1c-0.6,1.8-1.5,3.6-2.7,5.1c-0.9,1.1-2.4,2-3.8,1.6c-1.3-0.4-2.4-1.5-3-2.7
		c-0.9-1.8-1.3-3.9-1.6-5.9c-0.4,2.7-0.7,5.3-1,8c0,0.7-0.5,1.3-1.2,1.4c-0.7,0.2-1.4,0-2.1-0.2c-0.6-0.1-1-0.7-0.9-1.3
		C128.4,42.3,129.5,36.2,131.8,30.5z"/>
	<path class="st0" d="M160.5,29.1c0.7-0.2,1.4-0.4,2.1-0.2c0.7,0.2,1.4,0.9,1.2,1.7c-0.3,0.8-0.9,1.4-1.6,2
		c-2.6,0.7-5.1,1.7-7.4,3.1c2.1-0.2,4.3-0.4,6.2,0.4c1.4,0.6,2.5,2.1,2.3,3.7c-0.3,2.5-1.7,4.8-3.6,6.5c-1.9,1.7-4.3,3.2-6.9,3.3
		c-2,0.2-4-0.5-5.5-1.9c-0.4-0.4-1.2-0.6-1.4-1.2c-0.2-1,0.5-1.9,1.4-2.2c0.9-0.3,1.6,0.4,2.4,0.6c1.8,0.6,3.7,0.3,5.4-0.3
		c1.4-0.5,3-1.2,3.8-2.6c0.3-0.5,0.2-1.1-0.2-1.4c-0.6-0.6-1.5-0.8-2.3-1c-2.8-0.6-5.7-0.1-8.6,0.1c-0.8-0.2-1.6-0.7-1.7-1.6
		c-0.1-0.8,0.5-1.4,1-1.9c1.8-1.7,4-2.9,6.2-4C155.7,31,158.1,30,160.5,29.1z"/>
	<path class="st0" d="M102.7,31.4c0.3-0.9,1.1-1.8,2.1-2c3.3-0.2,6.6,0.7,9.8,1.4c1.1,0.3,1.6,1.9,0.6,2.6c-0.9,1-2.2,0.4-3.4,0.4
		c-1.5-0.1-3.1-0.4-4.6-0.3c-0.6,0-1.4,0.3-1.5,1c-0.5,1.8-0.9,3.7-0.8,5.6c2,0.1,4-0.5,6-0.9c1.4-0.2,1.9,1.7,1.2,2.7
		c-0.4,0.8-1.4,0.9-2.2,1.2c-1.9,0.6-3.9,0.7-5.9,1.2c-0.2,0.4-0.5,0.8-0.4,1.2c0.3,1.7-1.1,3.7-2.9,3.7c-1,0-1.4-1.2-1.3-2.1
		C99.7,41.8,100.9,36.5,102.7,31.4z"/>
	<g>
		<path class="st0" d="M120.8,31.8c0.7-0.9,1.6-2,2.8-2.2c1.2-0.1,1.8,1.1,2.1,2.1c1,3,0.7,6.2,0.9,9.3c0.5,0.2,1,0.5,1.1,1
			c0.2,0.8-0.3,1.6-0.8,2.1c0.4,1.3,0.8,2.7,0.1,4c-0.4,0.9-1.5,1.3-2.4,1c-0.5-0.2-0.7-0.8-0.7-1.4c-0.1-0.9-0.4-1.8-0.4-2.7
			c-2.4,0.3-4.9,0.5-7.3,1c-1,1.2-1.8,2.9-3.4,3.3c-1.1,0.3-2-1.1-1.4-2c1-1.9,2.1-3.7,3.2-5.6C116.5,38.4,118.5,35,120.8,31.8z
			 M118.1,42.4c1.7-0.3,3.4-0.6,5.1-0.8c-0.1-2.2-0.2-4.4-0.5-6.6C120.9,37.2,119.4,39.8,118.1,42.4z"/>
	</g>
	<path class="st0" d="M168.8,30.5c0.4-0.6,1.2-1,1.9-0.8c1.1,0.3,1.8,1.6,1.2,2.7c-1.6,2.5-3.2,5.2-3.7,8.2
		c-0.1,1.2-0.2,2.5,0.5,3.5c0.7,0.9,2.1,0.8,3,0.5c1.3-0.5,2.4-1.3,3.3-2.3c0.6-3.9,1.5-7.8,2.9-11.5c0.5-1.1,1.9-1.3,2.9-1
		c0.7,0.2,1.1,1,0.8,1.6c-1.8,5.2-2.8,10.7-3.4,16.2c-0.1,0.7-0.6,1.4-1.3,1.5c-0.7,0.1-1.6,0.1-2.2-0.5c-0.4-0.4-0.4-0.9-0.4-1.4
		c-1.5,1-3.3,1.9-5.2,1.7c-1.6-0.1-3.2-1-4-2.4c-1.4-2.1-1.3-4.8-0.9-7.2C164.9,36,166.7,33,168.8,30.5z"/>
	<g>
		<path class="st0" d="M184,30.3c0.6-0.5,1.4-0.5,2.2-0.4c2.4,0.4,5,0.7,7.1,1.9c0.8,0.5,1.7,1.2,1.6,2.3c-0.2,1.2-1.2,1.9-2.1,2.6
			c1.1,0.4,2.3,1,2.7,2.3c0.3,1.4-0.5,2.8-1.4,3.8c-1.5,1.5-3.3,2.7-5.1,3.7c-2.3,1.3-4.9,2.2-7.5,2.5c-0.6,0.1-1.3-0.2-1.5-0.9
			c-0.1-0.8,0-1.7,0.1-2.5c0.5-4.4,1.4-8.6,2.7-12.9C183,32,183.2,30.9,184,30.3z M186.1,33.8c-0.3,0.8-0.6,1.7-0.6,2.5
			c1.5-0.2,3.1-0.4,4.5-1.1c0.4-0.2,0.9-0.9,0.3-1.2C188.9,33.6,187.5,33.8,186.1,33.8z M184.6,40c-0.6,1.7-0.8,3.5-0.7,5.3
			c2.1-0.6,4.3-1.3,6.1-2.6c0.6-0.5,1.3-1.2,1.3-2c-0.1-0.5-0.7-0.7-1.2-0.9C188.3,39.4,186.4,39.6,184.6,40z"/>
	</g>
</g>
<g>
	<g>
		<path d="M150.5,1.3c1.9-0.6,3.9-0.4,5.7,0.4c1.9,0.9,3.5,2.5,4.4,4.4c1.9,0,3.9,0,5.8,0c0.9,0,1.7,0.5,2.2,1.2
			c1.9,2.8,3.7,5.7,5.6,8.5c0-2.4,0-4.8,0-7.2c-0.1-1.3,1.1-2.6,2.4-2.6c1.3,0,2.6,0,3.9,0c0.7,0,1.4-0.1,2.1,0.2
			c1,0.4,1.7,1.4,1.6,2.4c0,6.2,0,12.4,0,18.6c1.4-0.3,2.8,0,4.2,0.3c2.2,0.3,4.4,0.9,6.3,2c1.1,0.7,2.1,1.6,2.6,2.8
			c0.5,1.2,0.3,2.6-0.4,3.8c0.9,1.1,1.4,2.4,1.2,3.8c-0.2,2.4-1.8,4.3-3.6,5.8c-3.5,2.8-7.6,4.9-12.1,5.7c-1.1,0.3-2.3,0.1-3.3-0.4
			c-1.7,1-4.1,0.9-5.7-0.3c-2,0.9-4.3,1-6.4,0.3c-1.9-0.7-3.5-2.2-4.4-4c-2,2.1-4.5,4-7.3,4.8c-2.5,0.7-5.3,0.6-7.6-0.6
			c-0.8-0.4-1.5-0.9-2.2-1.5c-0.5-0.4-1-0.7-1.4-1.1c-1.2,1.5-2.8,2.8-4.8,3c-1.6,0.2-3.2-0.3-4.4-1.3c-0.2-0.1-0.4-0.4-0.7-0.3
			l0.2,0.2c-0.6,1-1.6,2-2.8,2.2c-1.6,0.3-3.3,0-4.7-0.8c-1.3,0.5-2.9,0.5-4-0.4c-1-0.7-1.5-2-1.7-3.2c-1.3,0.2-2.5,0.3-3.8,0.5
			c-0.6,1-1.4,1.9-2.4,2.6c-1.3,0.9-3.2,1.3-4.6,0.4c-1.2-0.8-2.1-2.2-2-3.6c0-0.6,0.3-1.2,0.5-1.8c-0.9,0.2-1.9,0.4-2.8,0.5
			c-0.3,1.5-0.9,3-2.1,4c-1,0.9-2.5,1.6-3.9,1.3c-1.4-0.1-2.6-1.1-3.1-2.4c-0.6-1.4-0.4-3-0.3-4.5c0.5-5.1,1.7-10.2,3.6-15.1
			c-3.2-4-3.6-9.6-2.3-14.4c-1.5,0.1-3,0-4.5,0c0,5.5,0,10.9,0,16.4c0.1,1.3-1.1,2.6-2.4,2.6c-1.8,0-3.7,0-5.5,0
			c-1.3,0-2.5-1.3-2.4-2.6c0-5.5,0-10.9,0-16.4c-1.5,0-2.9,0-4.4,0c0.9,3.5,0.8,7.2-0.4,10.6c-1.4,3.8-4.5,6.9-8.4,8.1
			c-2.9,0.9-6.1,0.9-9,0c-2.9-0.9-5.5-2.9-7.1-5.4c-1.2-1.8-1.9-4-2.1-6.1c-2.3,2.6-5.9,3.7-9.3,3.7c0,1.9,0,3.8,0,5.6
			c0,1.3-1.2,2.4-2.5,2.4c-1.8,0-3.6,0-5.3,0c-0.6,0-1.1-0.3-1.6-0.6c-0.5,0.3-1,0.6-1.6,0.6c-1.9,0-3.8,0-5.7,0
			c-1.1,0-2.2-0.7-2.5-1.8c-0.4-1.1-0.7-2.3-1.1-3.4c-1.5,0-3,0-4.5,0c-0.4,1.1-0.7,2.3-1.1,3.4c-0.3,1-1.3,1.8-2.4,1.8
			c-2,0-3.9,0-5.9,0c-1.6-0.1-2.7-1.8-2.2-3.3c2.8-7.7,5.6-15.5,8.4-23.2c0.3-1,1.4-1.8,2.5-1.8c2.1,0,4.1,0,6.2,0
			c1.1,0,2.1,0.8,2.4,1.8c2.2,6.3,4.5,12.6,6.7,18.8c0.1-6.1,0-12.2,0-18.3c0-1.3,1.2-2.4,2.4-2.4c2.9,0,5.9,0,8.8,0
			c2.8,0,5.7,0.7,7.8,2.5c1.1,1,2,2.3,2.4,3.7c1.8-3.1,4.9-5.5,8.5-6.2c3.2-0.7,6.6-0.6,9.6,0.8c2,0.9,3.6,2.4,5,4.1
			c0.1-1.1-0.2-2.2,0.2-3.2c0.4-1,1.4-1.6,2.4-1.6c6.1,0,12.1,0,18.2,0c1.1-0.1,2.2,0.7,2.5,1.8c0.3,1.1,0.1,2.2,0.1,3.3
			c1.9-2.6,4.8-4.5,8-5.1c3.3-0.6,6.9-0.5,9.9,1.1c3.5,1.8,6.1,5.4,6.8,9.3c0.7,3.5,0.4,7.3-1.1,10.6c0.2,0,0.6,0.1,0.7,0.1
			c1.5-2.3,2.9-4.7,4.4-7c-2-3.4-4-6.8-6-10.3c-0.9-1.5,0.3-3.6,2-3.7c2.2,0,4.3,0,6.5,0c1,0,2,0.5,2.4,1.4c0.6,1.3,1.2,2.5,1.9,3.8
			c0.7-1.3,1.4-2.6,2.1-3.9c0.4-0.8,1.3-1.4,2.2-1.4c1.7,0,3.5,0,5.2,0C146.2,3.8,148.2,2.1,150.5,1.3z M147.4,6
			c-0.5,0.9-0.5,1.9-0.8,2.9c-0.8,2.6-1.3,5.2-1.9,7.8c-0.8,3.2-1.8,6.4-2,9.8c1.8-0.1,3.5,1,4.5,2.4c0.5,0.7,0.4,1.6,0.5,2.4
			c0,0.4,0.1,0.8,0.1,1.2c2.1-1.4,4.4-2.6,6.8-3.7c0.5-0.2,0.6-0.7,0.8-1.2c0.6-2.7,1.2-5.4,1.8-8.1c0.6-3,1.2-5.9,1.9-8.9
			c0.2-0.7,0.2-1.5,0.1-2.3c-0.3-2.9-3-5.3-5.8-5.4C151,2.4,148.5,3.9,147.4,6z M64.4,8.4c-2.8,0.3-5.6,1.6-7.3,3.9
			c-2.3,2.7-2.9,6.4-2.6,9.8c0.2,2.7,1.4,5.4,3.4,7.3c2.3,2.3,5.7,3.2,8.9,2.9c2.8-0.2,5.5-1.4,7.3-3.6c2.7-3,3.3-7.3,2.7-11.2
			c-0.4-3-2.1-5.8-4.6-7.5C70,8.5,67.1,8.1,64.4,8.4z M104.7,10.5c-2.2,1.7-3.7,4.2-4.2,6.9c-0.6,3.5-0.3,7.4,1.8,10.4
			c1.9-1.3,4.4-0.9,6.5-0.7c-1.9-1-2.8-3.1-3-5.1c-0.3-2.4-0.1-4.9,1.3-6.9c1.6-2.4,5.2-3,7.6-1.4c1.8,1.3,2.5,3.6,2.6,5.7
			c0.1,2.3-0.1,4.9-1.7,6.7c-0.9,1-2.2,1.5-3.5,1.7c1,0.2,2,0.4,3,0.6c1.2,0.2,2.2,1.1,2.9,2.1c2.3-1.6,4-4.1,4.6-6.8
			c0.6-2.7,0.5-5.7-0.4-8.3c-1.2-3.3-4.1-6.1-7.6-6.7C111.1,8,107.4,8.4,104.7,10.5z M8.6,31.9c1.9,0,3.7,0,5.6,0
			c0.5-1.7,1.1-3.5,1.6-5.2c2.7,0,5.5,0,8.2,0c0.6,1.7,1.1,3.5,1.7,5.2c1.9,0,3.8,0,5.7,0c-2.8-7.7-5.5-15.4-8.3-23.2
			c-2.1,0-4.1,0-6.2,0C14.1,16.4,11.4,24.2,8.6,31.9z M34.9,8.7c0,7.7,0,15.4,0,23.2c1.7,0,3.5,0,5.2,0c0-2.7,0-5.4,0-8.1
			c1.9,0,3.8,0.1,5.7-0.4c1.9-0.5,3.7-1.6,4.9-3.3c1.2-1.7,1.4-3.9,1-5.9c-0.3-1.5-1.1-3-2.3-3.9c-1.7-1.2-3.9-1.6-6-1.6
			C40.6,8.7,37.8,8.7,34.9,8.7z M79.4,8.7c0,1.4,0,2.8,0,4.2c2.2,0,4.4,0,6.5,0c0,6.3,0,12.7,0,19c1.8,0,3.5,0,5.3,0
			c0-6.3,0-12.7,0-19c2.2,0,4.3,0,6.5,0c0-1.4,0-2.8,0-4.2C91.7,8.7,85.6,8.7,79.4,8.7z M125.4,8.7c2.2,3.8,4.5,7.7,6.7,11.5
			c-1.7,2.7-3.4,5.4-5.1,8.1c-0.2,0.2,0,0.4,0.1,0.6c0.7,0.9,1,1.9,1.3,2.9c0,0,0.1,0,0.1,0c0.4-1.1,0.8-2.2,1.3-3.3
			c0.9-1.5,2.6-2.3,4.2-2.7c0.6-1,1-2,1.4-3.1c0.2,1.2,0.9,2.2,1.4,3.3c0.3,0.7,1,1,1.4,1.7c0.5,0.8,0.4,1.8,0.8,2.6
			c0.1-1.2,0.7-2.3,1.6-3.1c-0.1-1.2-0.2-2.5,0.1-3.7c-0.5-1.2-1.3-2.2-1.9-3.3c1.5-2.6,3.1-5.1,4.6-7.6c0.4-1.2,0.6-2.5,1-3.8
			c-1.5,0-3,0-4.5,0c-1.1,2.1-2.3,4.2-3.4,6.3c-0.4,0.8-0.7,1.7-1,2.5c-0.4-1.5-1.2-2.8-1.8-4.2c-0.8-1.5-1.5-3.1-2.3-4.6
			C129.6,8.8,127.5,8.7,125.4,8.7z M161.2,8.7c0,0.6,0,1.3-0.1,1.9c-0.1,0.8-0.5,1.6-0.5,2.4c0,4.4,0,8.9,0,13.3
			c0.9-0.1,1.8-0.2,2.7,0.1c0.9,0.3,1.6,0.9,2.2,1.5c-0.1-4.2,0.1-8.5-0.1-12.8c0.9,1.7,2,3.3,3.1,4.9c2.3,3.5,4.6,6.9,6.8,10.4
			c0.3-0.8,0.6-1.6,1.3-2.2c1.3-1.2,3.1-1.5,4.8-1.2c0-6.2,0-12.4,0-18.5c-1.6,0-3.3,0-4.9,0c0,5.3-0.1,10.6,0.1,15.9
			c-3.5-5.3-6.9-10.6-10.4-15.9C164.6,8.7,162.9,8.7,161.2,8.7z M110.9,15.4c-1.1,0.2-1.9,1.1-2.2,2.1c-0.5,1.6-0.5,3.3-0.2,4.9
			c0.2,1.1,0.8,2.2,2,2.6c1.1,0.3,2.5,0.2,3.2-0.7c0.9-1,1-2.4,1.1-3.7c0-1.5-0.1-3.1-1.1-4.4C113.1,15.4,111.8,15.2,110.9,15.4z
			 M157.2,27.7c0.3-0.1,0.6-0.3,1-0.4c0-1.2,0-2.5,0-3.7C157.8,25,157.5,26.3,157.2,27.7z M168.1,24.1c0,1.2,0,2.3,0,3.5
			c0.6-0.3,1.3-0.5,2-0.6C169.4,26.1,168.8,25.1,168.1,24.1z M131.8,30.5c-2.3,5.7-3.4,11.8-3.7,17.9c-0.1,0.6,0.3,1.1,0.9,1.3
			c0.7,0.2,1.4,0.3,2.1,0.2c0.6-0.1,1.1-0.8,1.2-1.4c0.3-2.7,0.6-5.4,1-8c0.3,2,0.7,4.1,1.6,5.9c0.6,1.2,1.7,2.3,3,2.7
			c1.5,0.4,2.9-0.5,3.8-1.6c1.2-1.5,2.1-3.3,2.7-5.1c1.3-3.9,1.1-8.1,0.6-12.1c-0.5-0.5-1.1-1.1-1.8-1.2c-0.8-0.2-1.4,0.6-1.4,1.3
			c0,3.4,0,6.9-0.6,10.2c-0.2,1.3-0.4,2.8-1.2,4c-0.3,0.4-0.9,0-1-0.3c-0.6-1-0.9-2.3-1.2-3.5c-0.8-3.3-1.3-6.6-1.5-10
			c-0.1-0.6,0.3-1.3-0.1-1.9c-0.4-0.5-1.1-0.6-1.7-0.5C133.3,28.7,132.2,29.3,131.8,30.5z M160.5,29.1c-2.4,0.9-4.8,1.9-7.1,3.1
			c-2.2,1.1-4.4,2.4-6.2,4c-0.5,0.5-1.1,1.1-1,1.9c0.1,0.8,1,1.3,1.7,1.6c2.8-0.2,5.7-0.7,8.6-0.1c0.8,0.2,1.7,0.4,2.3,1
			c0.4,0.4,0.5,1,0.2,1.4c-0.8,1.4-2.3,2.1-3.8,2.6c-1.7,0.6-3.7,0.9-5.4,0.3c-0.8-0.2-1.5-0.9-2.4-0.6c-0.9,0.3-1.6,1.3-1.4,2.2
			c0.2,0.6,0.9,0.8,1.4,1.2c1.5,1.4,3.5,2,5.5,1.9c2.6-0.2,5-1.6,6.9-3.3c1.9-1.7,3.3-4,3.6-6.5c0.1-1.6-0.9-3.1-2.3-3.7
			c-2-0.9-4.2-0.7-6.2-0.4c2.3-1.4,4.8-2.4,7.4-3.1c0.6-0.5,1.3-1.2,1.6-2c0.3-0.8-0.5-1.5-1.2-1.7
			C161.8,28.7,161.1,28.9,160.5,29.1z M102.7,31.4c-1.8,5-3,10.3-3.3,15.7c-0.1,0.9,0.3,2.1,1.3,2.1c1.8,0,3.2-2,2.9-3.7
			c-0.1-0.4,0.2-0.8,0.4-1.2c1.9-0.5,4-0.6,5.9-1.2c0.8-0.3,1.8-0.3,2.2-1.2c0.7-0.9,0.3-2.9-1.2-2.7c-2,0.4-3.9,1-6,0.9
			c0-1.9,0.4-3.8,0.8-5.6c0.1-0.7,0.9-1,1.5-1c1.5-0.1,3.1,0.2,4.6,0.3c1.1,0,2.5,0.6,3.4-0.4c1-0.7,0.5-2.3-0.6-2.6
			c-3.2-0.6-6.5-1.6-9.8-1.4C103.8,29.6,103,30.5,102.7,31.4z M120.8,31.8c-2.4,3.1-4.3,6.5-6.3,9.9c-1.1,1.9-2.2,3.7-3.2,5.6
			c-0.5,0.9,0.4,2.3,1.4,2c1.7-0.4,2.4-2.1,3.4-3.3c2.4-0.5,4.9-0.8,7.3-1c0.1,0.9,0.4,1.8,0.4,2.7c0,0.5,0.2,1.1,0.7,1.4
			c0.9,0.4,2-0.1,2.4-1c0.6-1.3,0.3-2.7-0.1-4c0.6-0.5,1.1-1.3,0.8-2.1c-0.1-0.6-0.6-0.8-1.1-1c-0.2-3.1,0-6.3-0.9-9.3
			c-0.3-1-1-2.2-2.1-2.1C122.4,29.9,121.5,30.9,120.8,31.8z M168.8,30.5c-2.1,2.6-3.9,5.5-4.4,8.8c-0.4,2.4-0.4,5.1,0.9,7.2
			c0.9,1.4,2.4,2.3,4,2.4c1.9,0.2,3.7-0.6,5.2-1.7c0,0.5,0,1.1,0.4,1.4c0.6,0.5,1.4,0.5,2.2,0.5c0.8-0.1,1.2-0.8,1.3-1.5
			c0.6-5.5,1.6-10.9,3.4-16.2c0.2-0.6-0.1-1.5-0.8-1.6c-1-0.3-2.4-0.1-2.9,1c-1.5,3.7-2.3,7.6-2.9,11.5c-0.9,1-2.1,1.8-3.3,2.3
			c-1,0.4-2.3,0.4-3-0.5c-0.8-1-0.7-2.3-0.5-3.5c0.5-3,2.1-5.7,3.7-8.2c0.6-1-0.1-2.4-1.2-2.7C170,29.5,169.2,29.9,168.8,30.5z
			 M184,30.3c-0.8,0.6-1,1.7-1.3,2.6c-1.2,4.2-2.2,8.5-2.7,12.9c-0.1,0.8-0.2,1.7-0.1,2.5c0.1,0.6,0.9,0.9,1.5,0.9
			c2.6-0.4,5.2-1.2,7.5-2.5c1.8-1,3.6-2.2,5.1-3.7c1-1,1.8-2.4,1.4-3.8c-0.3-1.2-1.6-1.9-2.7-2.3c0.9-0.6,2-1.4,2.1-2.6
			c0.1-1.1-0.8-1.8-1.6-2.3c-2.2-1.2-4.7-1.5-7.1-1.9C185.4,29.8,184.6,29.8,184,30.3z M173.1,35.4c-1.2,2.1-2.4,4.4-2.4,6.9
			c0.8-0.3,1.5-0.7,2.1-1.2c0.4-2.6,1-5.1,1.6-7.6C173.8,33.9,173.5,34.7,173.1,35.4z M107.8,37.3c1.1-0.3,2.3-0.4,3.4-0.8
			c0,0-0.1-0.1-0.2-0.2c-1-0.1-2-0.1-2.9-0.3C108,36.5,107.9,36.9,107.8,37.3z M111.6,36.8c0.9-0.1,1.6,0.5,2.2,1
			c0.2-0.4,0.5-0.8,0.8-1.2c-1.1,0-2.2-0.1-3.2-0.2C111.4,36.5,111.6,36.7,111.6,36.8z M149.7,42.2c1.6,0.9,3.6,0.5,5.2-0.2
			C153.2,41.8,151.5,42,149.7,42.2z"/>
	</g>
	<g>
		<path d="M40.1,12.7c1.6,0,3.4-0.2,4.8,0.6c1.2,0.7,1.5,2.1,1.4,3.4c-0.1,1-0.6,2.1-1.5,2.6c-1.4,0.8-3.1,0.5-4.7,0.6
			C40.1,17.5,40.1,15.1,40.1,12.7z M42.7,15.3c0,0.7,0,1.4,0,2.2c0.3-0.1,0.7-0.1,1-0.4c0.2-0.5,0.2-1,0-1.4
			C43.4,15.4,43,15.3,42.7,15.3z"/>
	</g>
	<path d="M17,22.7c1-3.3,2-6.6,3-9.9c1,3.3,2,6.6,3,9.9C20.9,22.7,18.9,22.7,17,22.7z"/>
	<g>
		<path d="M64.3,13c1.7-0.4,3.6-0.2,5,0.9c1.3,1.2,2.1,2.9,2.3,4.6c0.2,1.9,0.1,3.9-0.6,5.7c-0.6,1.5-1.8,2.8-3.4,3.2
			c-1.7,0.4-3.6,0.3-5-0.7c-1.4-1.1-2.3-2.8-2.5-4.6c-0.2-1.9-0.2-3.9,0.6-5.7C61.3,14.8,62.6,13.4,64.3,13z M65.1,15.4
			c-1.1,0.2-1.8,1.2-2.2,2.2c-0.5,1.5-0.5,3.2-0.2,4.8c0.3,1.2,1,2.5,2.3,2.7c1,0.2,2.2,0.1,2.9-0.8c0.9-1.1,1.2-2.6,1.2-3.9
			c0-1.5-0.2-3.1-1.2-4.3C67.2,15.3,66.1,15.3,65.1,15.4z"/>
	</g>
	<path d="M186.1,33.8c1.4-0.1,2.8-0.3,4.1,0.2c0.6,0.3,0.1,1-0.3,1.2c-1.4,0.8-3,0.9-4.5,1.1C185.5,35.5,185.8,34.7,186.1,33.8z"/>
	<path d="M118.1,42.4c1.3-2.6,2.7-5.2,4.6-7.5c0.3,2.2,0.4,4.4,0.5,6.6C121.5,41.8,119.8,42.1,118.1,42.4z"/>
	<path d="M184.6,40c1.8-0.3,3.7-0.6,5.5-0.2c0.5,0.1,1,0.4,1.2,0.9c0.1,0.9-0.6,1.5-1.3,2c-1.8,1.3-4,2.1-6.1,2.6
		C183.8,43.5,184,41.7,184.6,40z"/>
</g>
<g>
	<path class="st1" d="M153.4,2.9c2.9,0.2,5.5,2.6,5.8,5.4c0.1,0.8,0,1.5-0.1,2.3c-0.7,3-1.3,5.9-1.9,8.9c-1.4-0.3-2.7-0.6-4.1-1
		c0.9-3.3,1.8-6.6,2.7-9.8c0.4-1.3,0.4-2.8-0.3-4C155,3.9,154.2,3.4,153.4,2.9z"/>
	<g>
		<path class="st1" d="M64.4,8.4c2.7-0.3,5.6,0.1,7.9,1.7c2.5,1.7,4.2,4.5,4.6,7.5c0.6,3.9,0,8.2-2.7,11.2c-1.8,2.1-4.5,3.4-7.3,3.6
			c-3.2,0.3-6.6-0.6-8.9-2.9c-2.1-1.9-3.2-4.6-3.4-7.3c-0.3-3.4,0.3-7.1,2.6-9.8C58.9,10,61.6,8.6,64.4,8.4z M64.3,13
			c-1.7,0.4-3,1.8-3.7,3.4c-0.7,1.8-0.8,3.8-0.6,5.7c0.2,1.8,1.1,3.5,2.5,4.6c1.4,1,3.3,1.2,5,0.7c1.6-0.4,2.7-1.7,3.4-3.2
			c0.8-1.8,0.8-3.8,0.6-5.7c-0.2-1.7-1-3.5-2.3-4.6C67.9,12.8,66,12.6,64.3,13z"/>
	</g>
	<path class="st1" d="M104.7,10.5c2.7-2.1,6.4-2.5,9.7-1.9c3.5,0.6,6.4,3.4,7.6,6.7c0.9,2.7,1,5.6,0.4,8.3c-0.6,2.8-2.2,5.3-4.6,6.8
		c-0.7-1-1.7-1.9-2.9-2.1c-1-0.2-2-0.4-3-0.6c1.3-0.1,2.6-0.6,3.5-1.7c1.6-1.8,1.8-4.4,1.7-6.7c-0.1-2.1-0.8-4.4-2.6-5.7
		c-2.4-1.6-6-1-7.6,1.4c-1.4,2-1.5,4.6-1.3,6.9c0.2,2,1.2,4.1,3,5.1c-2.2-0.2-4.6-0.6-6.5,0.7c-2.1-3-2.5-6.9-1.8-10.4
		C101,14.7,102.5,12.1,104.7,10.5z"/>
	<g>
		<path class="st1" d="M8.6,31.9c2.8-7.7,5.6-15.5,8.4-23.2c2.1,0,4.1,0,6.2,0c2.8,7.7,5.5,15.4,8.3,23.2c-1.9,0-3.8,0-5.7,0
			c-0.6-1.7-1.1-3.5-1.7-5.2c-2.7,0-5.5,0-8.2,0c-0.5,1.7-1.1,3.5-1.6,5.2C12.3,31.9,10.5,31.9,8.6,31.9z M17,22.7c2,0,3.9,0,5.9,0
			c-1-3.3-2-6.6-3-9.9C18.9,16.1,18,19.4,17,22.7z"/>
	</g>
	<g>
		<path class="st1" d="M34.9,8.7c2.8,0,5.6,0,8.5,0c2.1,0,4.3,0.4,6,1.6c1.3,0.9,2.1,2.4,2.3,3.9c0.3,2,0.2,4.2-1,5.9
			c-1.2,1.6-2.9,2.8-4.9,3.3c-1.9,0.5-3.8,0.4-5.7,0.4c0,2.7,0,5.4,0,8.1c-1.7,0-3.5,0-5.2,0C34.9,24.2,34.9,16.4,34.9,8.7z
			 M40.1,12.7c0,2.4,0,4.8,0,7.2c1.6,0,3.3,0.2,4.7-0.6c1-0.5,1.5-1.6,1.5-2.6c0.1-1.3-0.3-2.7-1.4-3.4
			C43.5,12.5,41.7,12.7,40.1,12.7z"/>
	</g>
	<path class="st1" d="M79.4,8.7c6.1,0,12.2,0,18.4,0c0,1.4,0,2.8,0,4.2c-2.2,0-4.3,0-6.5,0c0,6.3,0,12.7,0,19c-1.8,0-3.5,0-5.3,0
		c0-6.3,0-12.7,0-19c-2.2,0-4.4,0-6.5,0C79.4,11.5,79.4,10.1,79.4,8.7z"/>
	<path class="st1" d="M125.4,8.7c2.1,0,4.2,0,6.3,0c0.8,1.5,1.5,3.1,2.3,4.6c0.6,1.4,1.4,2.7,1.8,4.2c0.3-0.9,0.6-1.7,1-2.5
		c1.1-2.1,2.3-4.2,3.4-6.3c1.5,0,3,0,4.5,0c-0.4,1.3-0.6,2.6-1,3.8c-1.5,2.6-3.1,5.1-4.6,7.6c0.6,1.1,1.4,2.1,1.9,3.3
		c-0.3,1.2-0.2,2.5-0.1,3.7c-0.9,0.8-1.5,1.9-1.6,3.1c-0.5-0.8-0.4-1.8-0.8-2.6c-0.3-0.7-1.1-1-1.4-1.7c-0.5-1.1-1.2-2.1-1.4-3.3
		c-0.4,1.1-0.9,2.1-1.4,3.1c-1.7,0.3-3.3,1.2-4.2,2.7c-0.6,1-0.9,2.2-1.3,3.3c0,0-0.1,0-0.1,0c-0.3-1-0.6-2.1-1.3-2.9
		c-0.1-0.2-0.4-0.4-0.1-0.6c1.7-2.7,3.4-5.4,5.1-8.1C129.9,16.4,127.6,12.6,125.4,8.7z"/>
	<path class="st1" d="M161.2,8.7c1.7,0,3.4,0,5.1,0c3.5,5.3,6.9,10.6,10.4,15.9c-0.2-5.3-0.1-10.6-0.1-15.9c1.6,0,3.3,0,4.9,0
		c0,6.2,0,12.4,0,18.5c-1.7-0.4-3.5,0-4.8,1.2c-0.6,0.6-1,1.4-1.3,2.2c-2.3-3.5-4.6-6.9-6.8-10.4c-1.1-1.6-2.2-3.2-3.1-4.9
		c0.2,4.2,0,8.5,0.1,12.8c-0.6-0.6-1.3-1.2-2.2-1.5c-0.9-0.3-1.8-0.2-2.7-0.1c0-4.4,0-8.9,0-13.3c0-0.8,0.4-1.6,0.5-2.4
		C161.3,10,161.3,9.4,161.2,8.7z"/>
</g>
<g>
	<path class="st2" d="M144.7,16.7c2.8,0.7,5.6,1.2,8.4,1.9c-0.8,2.9-1.6,5.8-2.3,8.7c-0.4,1.7-1.4,3.2-3,3.9
		c-0.1-0.8-0.1-1.7-0.5-2.4c-1-1.4-2.7-2.5-4.5-2.4C142.8,23.1,143.9,19.9,144.7,16.7z"/>
</g>
<g>
	<path class="st3" d="M153.1,18.6l0-0.1c1.3,0.4,2.7,0.6,4.1,1c-0.6,2.7-1.2,5.4-1.8,8.1c-0.1,0.5-0.2,1-0.8,1.2
		c-2.3,1.1-4.6,2.3-6.8,3.7c0-0.4-0.1-0.8-0.1-1.2c1.6-0.7,2.6-2.3,3-3.9C151.5,24.4,152.3,21.5,153.1,18.6z"/>
	<path class="st3" d="M139.2,34.3"/>
</g>
</svg>
